<?xml version="1.0" standalone="no"?>
<!DOCTYPE svg PUBLIC "-//W3C//DTD SVG 20010904//EN"
 "http://www.w3.org/TR/2001/REC-SVG-20010904/DTD/svg10.dtd">
<svg version="1.0" xmlns="http://www.w3.org/2000/svg"
 width="70" height="70" viewBox="0 0 1920.000000 1920.000000"
 preserveAspectRatio="xMidYMid meet" class="reconfig-logo">

<g transform="translate(0.000000,1920.000000) scale(0.100000,-0.100000)"
fill="#000000" stroke="none" class="reconfig-logo">
<path class="reconfig-logo" d="M9870 15161 c-118 -58 -384 -189 -590 -290 -206 -102 -610 -301 -898
-443 l-522 -258 2 -891 3 -892 176 -74 177 -74 161 80 c88 45 165 81 171 81 6
0 10 -56 10 -153 l0 -152 58 -23 c32 -12 61 -22 65 -22 3 0 8 96 9 213 l3 212
255 127 c140 69 258 127 263 127 4 1 7 -135 7 -302 l0 -302 -160 -80 c-88 -44
-160 -82 -160 -85 0 -6 438 -190 451 -190 4 0 6 25 5 56 0 31 1 60 4 65 5 7
574 289 585 289 3 0 5 -137 5 -303 l0 -304 -215 -104 -215 -104 0 -147 c0 -82
2 -148 4 -148 2 0 96 45 209 100 112 55 207 100 211 100 3 0 6 -135 6 -300 l0
-300 -215 -107 -215 -108 0 -147 c0 -82 2 -148 5 -148 3 0 95 45 205 100 110
55 204 100 210 100 6 0 10 -105 10 -300 l0 -300 -215 -107 -215 -108 0 -147 0
-148 23 9 c13 5 105 50 205 100 100 50 186 91 192 91 6 0 10 -105 10 -301 l0
-300 -215 -105 -215 -106 0 -149 c0 -82 2 -149 4 -149 2 0 64 31 138 68 73 38
168 85 211 105 l77 36 0 -305 0 -305 -215 -104 -215 -104 0 -151 0 -150 128
64 c70 35 159 78 197 96 39 18 78 36 88 42 16 8 17 -9 17 -294 l0 -303 -215
-108 -215 -107 0 -145 c0 -80 4 -145 8 -145 5 0 100 45 211 100 111 55 204
100 207 100 2 0 4 -136 4 -303 l0 -302 -215 -108 -215 -107 0 -145 c0 -80 3
-145 6 -145 3 0 98 45 211 100 113 55 208 100 209 100 2 0 4 -67 4 -148 l0
-149 -325 1 -325 1 0 3001 0 3001 -212 88 c-117 48 -260 108 -318 132 -58 25
-206 87 -330 138 -124 51 -371 154 -550 229 l-324 135 -256 -164 c-140 -91
-464 -300 -720 -464 l-465 -299 -3 -3153 -2 -3154 -153 -54 c-604 -215 -1121
-499 -1469 -808 -71 -63 -216 -213 -205 -213 2 0 69 31 148 69 411 195 877
350 1474 490 1184 276 2677 410 4158 373 485 -12 757 -27 1167 -62 1143 -99
2164 -296 2950 -570 240 -84 317 -115 544 -221 93 -43 171 -78 173 -76 1 2
-44 50 -100 108 -254 258 -616 498 -1063 703 -259 119 -630 256 -908 337 -140
41 -153 46 -226 103 -43 34 -259 202 -480 375 -364 283 -404 312 -425 303 -12
-6 -101 -57 -196 -115 -96 -57 -251 -149 -345 -205 l-171 -102 -124 13 -124
12 -3 2146 -2 2146 182 108 c101 59 326 193 501 297 l317 189 44 -35 c24 -20
46 -36 50 -36 3 0 6 823 6 1830 l0 1829 -242 184 c-359 271 -1491 1122 -1503
1129 -5 3 -107 -42 -225 -101z m80 -555 l0 -304 -292 -144 -293 -144 -5 275
c-3 152 -3 289 -1 305 3 27 23 38 295 172 160 79 292 144 294 144 1 0 2 -137
2 -304z m-730 -360 l0 -304 -256 -126 c-140 -69 -260 -126 -265 -126 -5 0 -9
123 -9 300 l0 300 258 129 c141 71 260 130 265 130 4 1 7 -136 7 -303z m-660
-328 l0 -303 -293 -143 c-160 -78 -295 -142 -299 -142 -5 0 -8 135 -8 300 l0
301 288 143 c158 78 293 144 300 144 9 2 12 -64 12 -300z m1390 -221 l0 -304
-286 -141 c-157 -78 -290 -142 -295 -142 -5 0 -9 124 -8 303 l0 302 287 142
c158 78 290 142 295 142 4 1 7 -136 7 -302z m-730 -360 l0 -302 -255 -128
c-140 -70 -260 -127 -265 -127 -6 0 -10 108 -10 300 l0 300 258 129 c141 72
260 130 265 130 4 1 7 -135 7 -302z m-660 -329 l-1 -303 -285 -140 c-157 -77
-292 -141 -300 -143 -12 -3 -14 41 -12 299 l3 302 285 143 c157 79 291 143
298 143 9 1 12 -66 12 -301z m1390 -221 l0 -304 -282 -137 c-156 -76 -289
-141 -295 -143 -10 -4 -13 60 -13 298 l0 304 288 142 c158 77 290 142 295 142
4 1 7 -135 7 -302z m-2392 -4099 l-3 -3322 -35 -8 c-19 -4 -109 -21 -200 -38
-290 -55 -705 -153 -922 -218 -53 -17 -99 -27 -102 -24 -4 3 -6 1390 -6 3083
l0 3078 213 130 c116 72 397 245 622 385 226 140 416 255 423 255 10 1 12
-666 10 -3321z m4502 -3328 c231 -121 251 -136 159 -110 -34 9 -378 80 -461
94 l-38 7 0 94 0 94 73 -38 c39 -21 160 -85 267 -141z"/>
<path d="M11550 9971 c-91 -54 -259 -154 -375 -223 l-210 -124 -3 -302 c-2
-221 1 -302 9 -302 6 0 46 15 88 34 116 52 226 100 451 196 l205 88 410 -205
c226 -113 407 -202 402 -197 -4 4 -186 134 -405 289 l-397 281 -3 107 c-1 59
0 107 4 107 7 0 109 -53 399 -205 108 -57 878 -461 909 -477 38 -20 4 11 -101
94 -60 46 -263 205 -453 353 -407 317 -431 335 -535 418 -133 105 -216 167
-223 166 -4 0 -81 -44 -172 -98z"/>
<path d="M11610 9170 c-105 -64 -426 -255 -562 -334 l-87 -51 -1 -303 c0 -295
1 -303 19 -297 17 5 194 81 621 267 l115 50 400 -200 c220 -111 401 -200 402
-198 1 1 -102 76 -230 166 -128 90 -307 218 -399 284 l-168 119 0 109 0 108
83 -44 c45 -24 183 -96 307 -161 124 -65 304 -160 400 -210 394 -208 543 -286
546 -282 2 1 -131 107 -294 234 -163 127 -462 360 -663 517 -202 157 -373 286
-380 285 -8 0 -57 -27 -109 -59z"/>
<path d="M11645 8352 c-34 -20 -201 -120 -373 -222 l-312 -185 0 -302 c0 -167
2 -303 5 -303 2 0 113 48 246 106 133 58 301 131 372 161 l131 56 405 -202
c223 -110 395 -192 381 -181 -25 20 -559 399 -702 500 l-78 54 0 108 0 108 43
-21 c50 -25 974 -511 1161 -610 71 -38 131 -67 134 -65 2 3 -16 19 -41 38 -25
18 -143 110 -262 203 -119 94 -229 179 -244 190 -14 11 -192 150 -396 309
-203 159 -379 291 -390 293 -11 1 -47 -14 -80 -35z"/>
<path d="M11555 7462 c-88 -53 -258 -155 -378 -226 l-217 -129 0 -303 0 -304
33 14 c17 7 95 41 172 74 77 33 229 98 337 146 108 47 204 86 213 86 9 0 195
-90 413 -201 218 -110 390 -193 382 -185 -13 13 -189 138 -610 434 -74 53
-145 102 -157 111 -21 15 -22 24 -23 124 0 59 3 107 8 107 4 0 27 -12 52 -26
25 -14 124 -67 220 -116 96 -50 180 -94 185 -98 6 -4 91 -49 190 -100 99 -51
203 -105 230 -120 82 -46 457 -240 463 -240 3 0 -40 35 -95 78 -115 88 -309
240 -773 602 -438 342 -474 370 -480 369 -3 0 -77 -44 -165 -97z"/>
<path d="M11340 6496 l-375 -224 -3 -306 -2 -305 77 33 c43 18 130 56 193 84
63 28 198 87 300 130 l185 79 397 -198 c219 -110 401 -199 404 -199 4 0 -74
57 -172 127 -99 69 -278 197 -399 283 l-220 156 -3 107 c-1 59 0 107 4 107 4
0 64 -30 133 -67 69 -36 214 -112 321 -168 296 -155 436 -228 659 -347 112
-60 206 -107 208 -104 2 2 -65 58 -149 123 -84 66 -259 202 -388 303 -129 101
-294 229 -366 286 -72 56 -194 151 -273 213 -78 61 -145 111 -149 111 -4 -1
-176 -101 -382 -224z"/>
</g>
</svg>
